{
    "asset" : {
        "generator" : "Khronos glTF Blender I/O v3.4.50",
        "version" : "2.0"
    },
    "scene" : 0,
    "scenes" : [
        {
            "name" : "Scene",
            "nodes" : [
                7
            ]
        }
    ],
    "nodes" : [
        {
            "mesh" : 0,
            "name" : "Object_2"
        },
        {
            "mesh" : 1,
            "name" : "Object_3"
        },
        {
            "mesh" : 2,
            "name" : "Object_4"
        },
        {
            "mesh" : 3,
            "name" : "Object_5"
        },
        {
            "mesh" : 4,
            "name" : "Object_6"
        },
        {
            "mesh" : 5,
            "name" : "Object_7"
        },
        {
            "children" : [
                0,
                1,
                2,
                3,
                4,
                5
            ],
            "name" : "Map.OBJ.cleaner.materialmerger.gles"
        },
        {
            "children" : [
                6
            ],
            "name" : "Sketchfab_model",
            "rotation" : [
                -0.70710688829422,
                0,
                0,
                0.7071066498756409
            ],
            "scale" : [
                3.463527202606201,
                3.4635276794433594,
                3.4635276794433594
            ]
        }
    ],
    "materials" : [
        {
            "emissiveFactor" : [
                1,
                1,
                1
            ],
            "emissiveTexture" : {
                "index" : 0
            },
            "name" : "defaultMat",
            "normalTexture" : {
                "index" : 1,
                "scale" : 0.45903199911117554
            },
            "occlusionTexture" : {
                "index" : 2,
                "strength" : 0.6114710569381714
            },
            "pbrMetallicRoughness" : {
                "baseColorFactor" : [
                    0.5139100551605225,
                    0.5139100551605225,
                    0.5139100551605225,
                    1
                ],
                "baseColorTexture" : {
                    "index" : 3
                },
                "metallicFactor" : 0.965129554271698,
                "metallicRoughnessTexture" : {
                    "index" : 2
                }
            }
        }
    ],
    "meshes" : [
        {
            "name" : "Object_0",
            "primitives" : [
                {
                    "attributes" : {
                        "POSITION" : 0,
                        "TEXCOORD_0" : 1,
                        "NORMAL" : 2
                    },
                    "indices" : 3,
                    "material" : 0
                }
            ]
        },
        {
            "name" : "Object_1",
            "primitives" : [
                {
                    "attributes" : {
                        "POSITION" : 4,
                        "TEXCOORD_0" : 5,
                        "NORMAL" : 6
                    },
                    "indices" : 7,
                    "material" : 0
                }
            ]
        },
        {
            "name" : "Object_2",
            "primitives" : [
                {
                    "attributes" : {
                        "POSITION" : 8,
                        "TEXCOORD_0" : 9,
                        "NORMAL" : 10
                    },
                    "indices" : 11,
                    "material" : 0
                }
            ]
        },
        {
            "name" : "Object_3",
            "primitives" : [
                {
                    "attributes" : {
                        "POSITION" : 12,
                        "TEXCOORD_0" : 13,
                        "NORMAL" : 14
                    },
                    "indices" : 15,
                    "material" : 0
                }
            ]
        },
        {
            "name" : "Object_4",
            "primitives" : [
                {
                    "attributes" : {
                        "POSITION" : 16,
                        "TEXCOORD_0" : 17,
                        "NORMAL" : 18
                    },
                    "indices" : 19,
                    "material" : 0
                }
            ]
        },
        {
            "name" : "Object_5",
            "primitives" : [
                {
                    "attributes" : {
                        "POSITION" : 20,
                        "TEXCOORD_0" : 21,
                        "NORMAL" : 22
                    },
                    "indices" : 23,
                    "material" : 0
                }
            ]
        }
    ],
    "textures" : [
        {
            "sampler" : 0,
            "source" : 0
        },
        {
            "sampler" : 0,
            "source" : 1
        },
        {
            "sampler" : 0,
            "source" : 2
        },
        {
            "sampler" : 0,
            "source" : 3
        }
    ],
    "images" : [
        {
            "mimeType" : "image/png",
            "name" : "Image_2",
            "uri" : "Image_2.png"
        },
        {
            "mimeType" : "image/png",
            "name" : "Image_3",
            "uri" : "Image_3.png"
        },
        {
            "mimeType" : "image/png",
            "name" : "Image_1",
            "uri" : "Image_1.png"
        },
        {
            "mimeType" : "image/png",
            "name" : "Image_0",
            "uri" : "Image_0.png"
        }
    ],
    "accessors" : [
        {
            "bufferView" : 0,
            "componentType" : 5126,
            "count" : 66763,
            "max" : [
                37.07212829589844,
                33.85811233520508,
                9.218497276306152
            ],
            "min" : [
                -38.881675720214844,
                -64.7081298828125,
                -9.568297386169434
            ],
            "type" : "VEC3"
        },
        {
            "bufferView" : 1,
            "componentType" : 5126,
            "count" : 66763,
            "type" : "VEC2"
        },
        {
            "bufferView" : 2,
            "componentType" : 5126,
            "count" : 66763,
            "type" : "VEC3"
        },
        {
            "bufferView" : 3,
            "componentType" : 5125,
            "count" : 237333,
            "type" : "SCALAR"
        },
        {
            "bufferView" : 4,
            "componentType" : 5126,
            "count" : 66721,
            "max" : [
                15.253982543945312,
                32.23908996582031,
                7.453169345855713
            ],
            "min" : [
                -15.515581130981445,
                -29.767423629760742,
                -2.204188585281372
            ],
            "type" : "VEC3"
        },
        {
            "bufferView" : 5,
            "componentType" : 5126,
            "count" : 66721,
            "type" : "VEC2"
        },
        {
            "bufferView" : 6,
            "componentType" : 5126,
            "count" : 66721,
            "type" : "VEC3"
        },
        {
            "bufferView" : 7,
            "componentType" : 5125,
            "count" : 144276,
            "type" : "SCALAR"
        },
        {
            "bufferView" : 8,
            "componentType" : 5126,
            "count" : 66009,
            "max" : [
                16.27971076965332,
                32.286231994628906,
                7.452404022216797
            ],
            "min" : [
                -15.539551734924316,
                -47.418148040771484,
                -2.204188585281372
            ],
            "type" : "VEC3"
        },
        {
            "bufferView" : 9,
            "componentType" : 5126,
            "count" : 66009,
            "type" : "VEC2"
        },
        {
            "bufferView" : 10,
            "componentType" : 5126,
            "count" : 66009,
            "type" : "VEC3"
        },
        {
            "bufferView" : 11,
            "componentType" : 5125,
            "count" : 125964,
            "type" : "SCALAR"
        },
        {
            "bufferView" : 12,
            "componentType" : 5126,
            "count" : 66297,
            "max" : [
                191.07032775878906,
                170.55239868164062,
                39.13579559326172
            ],
            "min" : [
                -223.0184783935547,
                -211.685302734375,
                -86.83612823486328
            ],
            "type" : "VEC3"
        },
        {
            "bufferView" : 13,
            "componentType" : 5126,
            "count" : 66297,
            "type" : "VEC2"
        },
        {
            "bufferView" : 14,
            "componentType" : 5126,
            "count" : 66297,
            "type" : "VEC3"
        },
        {
            "bufferView" : 15,
            "componentType" : 5125,
            "count" : 152475,
            "type" : "SCALAR"
        },
        {
            "bufferView" : 16,
            "componentType" : 5126,
            "count" : 65986,
            "max" : [
                191.07032775878906,
                170.55239868164062,
                39.13579559326172
            ],
            "min" : [
                -221.8878173828125,
                -211.685302734375,
                -86.83612823486328
            ],
            "type" : "VEC3"
        },
        {
            "bufferView" : 17,
            "componentType" : 5126,
            "count" : 65986,
            "type" : "VEC2"
        },
        {
            "bufferView" : 18,
            "componentType" : 5126,
            "count" : 65986,
            "type" : "VEC3"
        },
        {
            "bufferView" : 19,
            "componentType" : 5125,
            "count" : 97317,
            "type" : "SCALAR"
        },
        {
            "bufferView" : 20,
            "componentType" : 5126,
            "count" : 28043,
            "max" : [
                161.82666015625,
                137.35726928710938,
                35.073490142822266
            ],
            "min" : [
                -216.37857055664062,
                -202.34817504882812,
                -86.8360595703125
            ],
            "type" : "VEC3"
        },
        {
            "bufferView" : 21,
            "componentType" : 5126,
            "count" : 28043,
            "type" : "VEC2"
        },
        {
            "bufferView" : 22,
            "componentType" : 5126,
            "count" : 28043,
            "type" : "VEC3"
        },
        {
            "bufferView" : 23,
            "componentType" : 5123,
            "count" : 63729,
            "type" : "SCALAR"
        }
    ],
    "bufferViews" : [
        {
            "buffer" : 0,
            "byteLength" : 801156,
            "byteOffset" : 0,
            "target" : 34962
        },
        {
            "buffer" : 0,
            "byteLength" : 534104,
            "byteOffset" : 801156,
            "target" : 34962
        },
        {
            "buffer" : 0,
            "byteLength" : 801156,
            "byteOffset" : 1335260,
            "target" : 34962
        },
        {
            "buffer" : 0,
            "byteLength" : 949332,
            "byteOffset" : 2136416,
            "target" : 34963
        },
        {
            "buffer" : 0,
            "byteLength" : 800652,
            "byteOffset" : 3085748,
            "target" : 34962
        },
        {
            "buffer" : 0,
            "byteLength" : 533768,
            "byteOffset" : 3886400,
            "target" : 34962
        },
        {
            "buffer" : 0,
            "byteLength" : 800652,
            "byteOffset" : 4420168,
            "target" : 34962
        },
        {
            "buffer" : 0,
            "byteLength" : 577104,
            "byteOffset" : 5220820,
            "target" : 34963
        },
        {
            "buffer" : 0,
            "byteLength" : 792108,
            "byteOffset" : 5797924,
            "target" : 34962
        },
        {
            "buffer" : 0,
            "byteLength" : 528072,
            "byteOffset" : 6590032,
            "target" : 34962
        },
        {
            "buffer" : 0,
            "byteLength" : 792108,
            "byteOffset" : 7118104,
            "target" : 34962
        },
        {
            "buffer" : 0,
            "byteLength" : 503856,
            "byteOffset" : 7910212,
            "target" : 34963
        },
        {
            "buffer" : 0,
            "byteLength" : 795564,
            "byteOffset" : 8414068,
            "target" : 34962
        },
        {
            "buffer" : 0,
            "byteLength" : 530376,
            "byteOffset" : 9209632,
            "target" : 34962
        },
        {
            "buffer" : 0,
            "byteLength" : 795564,
            "byteOffset" : 9740008,
            "target" : 34962
        },
        {
            "buffer" : 0,
            "byteLength" : 609900,
            "byteOffset" : 10535572,
            "target" : 34963
        },
        {
            "buffer" : 0,
            "byteLength" : 791832,
            "byteOffset" : 11145472,
            "target" : 34962
        },
        {
            "buffer" : 0,
            "byteLength" : 527888,
            "byteOffset" : 11937304,
            "target" : 34962
        },
        {
            "buffer" : 0,
            "byteLength" : 791832,
            "byteOffset" : 12465192,
            "target" : 34962
        },
        {
            "buffer" : 0,
            "byteLength" : 389268,
            "byteOffset" : 13257024,
            "target" : 34963
        },
        {
            "buffer" : 0,
            "byteLength" : 336516,
            "byteOffset" : 13646292,
            "target" : 34962
        },
        {
            "buffer" : 0,
            "byteLength" : 224344,
            "byteOffset" : 13982808,
            "target" : 34962
        },
        {
            "buffer" : 0,
            "byteLength" : 336516,
            "byteOffset" : 14207152,
            "target" : 34962
        },
        {
            "buffer" : 0,
            "byteLength" : 127458,
            "byteOffset" : 14543668,
            "target" : 34963
        }
    ],
    "samplers" : [
        {
            "magFilter" : 9729,
            "minFilter" : 9987
        }
    ],
    "buffers" : [
        {
            "byteLength" : 14671128,
            "uri" : "outer_space_environment.bin"
        }
    ]
}
